<?xml version="1.0" standalone="no"?>
<!DOCTYPE svg PUBLIC "-//W3C//DTD SVG 20010904//EN"
 "http://www.w3.org/TR/2001/REC-SVG-20010904/DTD/svg10.dtd">
<svg version="1.0" xmlns="http://www.w3.org/2000/svg"
 width="180.000000pt" height="34.000000pt" viewBox="0 0 180.000000 34.000000"
 preserveAspectRatio="xMidYMid meet">

<g transform="translate(0.000000,34.000000) scale(0.100000,-0.100000)"
fill="#0075FD" stroke="none">
<path d="M47 254 c-4 -4 -7 -45 -7 -91 0 -67 3 -83 15 -83 10 0 15 11 15 35 0
47 27 47 58 0 12 -19 27 -35 32 -35 14 0 12 12 -7 39 -15 22 -15 25 1 37 13 9
16 23 14 56 l-3 43 -55 3 c-31 2 -59 0 -63 -4z m93 -44 c0 -28 -3 -30 -35 -30
-32 0 -35 2 -35 30 0 28 3 30 35 30 32 0 35 -2 35 -30z"/>
<path d="M890 170 c0 -53 4 -90 10 -90 6 0 10 11 10 24 0 13 7 29 15 36 13 11
22 7 53 -23 55 -54 70 -45 21 12 l-41 50 36 38 c27 28 32 39 20 41 -8 2 -32
-16 -54 -40 l-39 -43 -1 43 c0 30 -4 42 -15 42 -12 0 -15 -17 -15 -90z"/>
<path d="M682 225 c-19 -22 -27 -24 -62 -19 -21 4 -51 4 -65 0 -23 -6 -25 -11
-25 -60 0 -59 7 -66 63 -66 46 0 55 10 59 60 4 58 22 58 28 1 5 -48 26 -69 56
-57 18 7 17 9 -4 17 -19 7 -23 15 -20 46 2 30 7 38 23 38 17 0 21 -8 23 -45 4
-53 12 -60 71 -60 52 0 45 17 -9 22 -53 5 -47 32 8 36 40 3 43 5 40 30 -4 34
-46 51 -87 35 -22 -8 -32 -7 -48 6 -12 9 -22 22 -24 29 -3 9 -12 5 -27 -13z
m-62 -80 c0 -43 -1 -45 -30 -45 -28 0 -30 2 -30 38 0 45 5 52 37 52 21 0 23
-5 23 -45z m215 25 c0 -18 -33 -26 -47 -12 -6 6 -7 15 -3 22 10 16 50 8 50
-10z"/>
<path d="M1723 243 c-7 -3 -13 -11 -13 -19 0 -10 -13 -14 -46 -14 -66 0 -84
-13 -84 -60 0 -22 7 -45 16 -54 17 -18 84 -22 84 -6 0 6 -16 10 -36 10 l-35 0
3 43 3 42 48 3 47 3 0 -43 c0 -24 5 -49 12 -56 15 -15 48 -16 48 -2 0 6 -7 10
-15 10 -21 0 -21 78 0 86 19 8 20 24 1 24 -8 0 -16 8 -18 18 -2 11 -9 17 -15
15z"/>
<path d="M208 199 c-26 -15 -25 -95 1 -109 25 -13 91 -13 91 0 0 6 -18 10 -41
10 -33 0 -40 3 -37 18 2 12 14 18 41 20 33 3 37 6 37 32 0 38 -50 54 -92 29z
m67 -29 c0 -9 -11 -16 -27 -18 -23 -3 -28 1 -28 18 0 17 5 21 28 18 16 -2 27
-9 27 -18z"/>
<path d="M320 144 c0 -50 3 -64 15 -64 12 0 15 13 15 55 0 52 1 55 25 55 23 0
25 -4 26 -47 1 -27 1 -51 0 -55 0 -5 6 -8 13 -8 11 0 16 15 18 53 3 48 5 52
28 52 23 0 25 -4 28 -52 2 -38 7 -53 18 -53 18 0 20 105 2 117 -7 4 -52 8
-100 9 l-88 1 0 -63z"/>
<path d="M1063 203 c-20 -7 -17 -109 3 -117 20 -8 68 -8 88 0 25 10 22 100 -3
114 -20 10 -66 12 -88 3z m75 -60 c3 -42 2 -43 -27 -43 -30 0 -31 1 -31 46 0
44 1 45 28 42 24 -3 27 -7 30 -45z"/>
<path d="M1180 144 c0 -49 3 -64 14 -64 11 0 16 15 18 53 3 48 5 52 31 55 27
3 27 2 27 -52 0 -43 3 -56 15 -56 12 0 15 13 15 59 0 67 -3 70 -77 69 l-43 -1
0 -63z"/>
<path d="M1320 144 c0 -50 3 -64 15 -64 12 0 15 13 15 56 0 54 0 55 28 52 25
-3 27 -7 30 -55 2 -38 7 -53 18 -53 11 0 14 14 14 59 0 67 -3 70 -77 69 l-43
-1 0 -63z"/>
<path d="M1465 197 c-14 -11 -17 -22 -12 -57 3 -24 11 -47 19 -51 18 -12 98
-11 98 1 0 6 -21 10 -46 10 -38 0 -45 3 -42 18 2 12 15 18 46 20 37 3 42 6 42
27 0 41 -65 60 -105 32z m73 -29 c3 -13 -3 -18 -22 -18 -27 0 -41 14 -31 31
10 16 49 6 53 -13z"/>
</g>
</svg>
